<svg width="26" height="26" viewBox="0 0 26 26" fill="none" xmlns="http://www.w3.org/2000/svg">
<g id="logo-jalisco 1" clip-path="url(#clip0_134_413)">
<g id="Layer 2">
<g id="Layer 1">
<path id="Vector" d="M22.8771 1.12685C20.8621 1.12875 18.8545 1.36936 16.8962 1.84363C16.7833 1.86899 16.6657 1.89664 16.562 1.92661C16.0849 2.04876 15.6124 2.18474 15.1538 2.32763L15.0824 2.35068L14.838 2.43135C14.4071 2.57424 13.9622 2.73327 13.5197 2.90843L13.2247 3.03059C12.8029 3.20114 12.3789 3.39013 11.9294 3.60217C11.8372 3.64596 11.7428 3.68975 11.6529 3.73584C11.268 3.92253 10.8669 4.13457 10.4613 4.36274C10.3714 4.40883 10.2815 4.46184 10.1963 4.51255C9.79984 4.74302 9.41495 4.9735 9.04388 5.20397L9.02314 5.2178C8.94708 5.2662 8.86872 5.3146 8.79266 5.36531C8.44234 5.59578 8.0874 5.8447 7.70481 6.12588C7.62876 6.17889 7.5527 6.23881 7.47434 6.29874C7.13323 6.55456 6.78291 6.82653 6.46024 7.1054C6.38649 7.16302 6.31735 7.22294 6.2459 7.28517C5.91632 7.56866 5.59596 7.85675 5.29634 8.14024L5.10043 8.32923C4.79621 8.62424 4.49659 8.92616 4.21541 9.22809C4.15318 9.29492 4.09095 9.35946 4.03103 9.4263C3.79133 9.70056 3.52167 10.0071 3.22666 10.3712L3.18057 10.4266C3.14139 10.475 3.0999 10.5234 3.06303 10.5718C1.95085 11.933 0.981593 13.4051 0.170552 14.9646L0.152114 14.9992V15.0361C0.170552 15.1536 0.191295 15.2666 0.214343 15.391L0.278876 15.7206L0.437904 15.4187C1.27525 13.7539 2.29565 12.1878 3.48019 10.7492C3.5332 10.6847 3.58621 10.6202 3.64844 10.551C3.90657 10.2376 4.18084 9.92873 4.45971 9.62911L4.63718 9.43782C4.94602 9.11285 5.23411 8.82475 5.52221 8.54818C5.58443 8.48595 5.64897 8.42603 5.71811 8.36611C6.01312 8.08262 6.32887 7.80144 6.65845 7.52487C6.72759 7.46494 6.79443 7.40733 6.86588 7.34971C7.17472 7.09388 7.5043 6.83344 7.87076 6.55917L8.10123 6.39093C8.45847 6.12818 8.82262 5.87696 9.18447 5.64418C9.26514 5.59117 9.3435 5.53816 9.41495 5.48746C9.7791 5.25698 10.1617 5.02651 10.5489 4.79603L10.807 4.65314C11.185 4.4434 11.5837 4.23828 11.9917 4.04238C12.0839 3.99628 12.1737 3.95249 12.2682 3.911C12.6946 3.71049 13.1279 3.5215 13.5543 3.35325C13.6488 3.31407 13.7479 3.2772 13.847 3.24032C14.2572 3.07899 14.6975 2.92226 15.1538 2.77937C15.2552 2.7471 15.3612 2.71253 15.4649 2.68257C15.9121 2.54198 16.3868 2.41061 16.8616 2.29537L17.1912 2.2147C19.0558 1.78451 20.9635 1.56876 22.8771 1.57167C23.8785 1.57077 24.8791 1.63081 25.8732 1.75144L26.0023 1.76527V1.32045L25.9009 1.30662C24.8975 1.18599 23.8877 1.12596 22.8771 1.12685ZM18.415 2.8439C18.3021 2.86234 18.1846 2.88308 18.0762 2.90613C17.5646 3.00984 17.1013 3.11817 16.6588 3.23801C16.5528 3.26567 16.4468 3.29333 16.3454 3.32329C15.8844 3.45236 15.4373 3.59064 15.0086 3.73815L14.7205 3.84186C14.2872 3.99398 13.8493 4.16453 13.4183 4.34891L13.1371 4.47106C12.7522 4.637 12.3604 4.82369 11.941 5.03573L11.6782 5.17401C11.3141 5.3607 10.9361 5.57043 10.5258 5.81474L10.2769 5.96224C9.89203 6.19272 9.52327 6.43702 9.18217 6.67211L8.95169 6.83114C8.61519 7.06161 8.27178 7.31974 7.93068 7.5871L7.87767 7.62858L7.72095 7.75765C7.38215 8.02731 7.05948 8.29927 6.76678 8.56201C6.69763 8.61963 6.6331 8.68186 6.56857 8.74178C6.26664 9.01144 5.96702 9.29953 5.67893 9.59224C5.6167 9.65216 5.55447 9.71669 5.49455 9.77892C5.21798 10.0601 4.9391 10.362 4.67175 10.6686L4.5012 10.8622C2.92037 12.6969 1.62302 14.7579 0.652247 16.9767L0.636114 17.0159L0.647638 17.055C0.677599 17.1588 0.712171 17.2579 0.749047 17.357L0.850457 17.6243L0.96339 17.3616C1.93867 15.0683 3.26864 12.9427 4.90453 11.0627L5.07739 10.8714C5.35857 10.5533 5.62361 10.2675 5.89558 9.99788C5.95089 9.93795 6.01081 9.87803 6.07074 9.8158C6.35422 9.53231 6.65154 9.25113 6.95807 8.97917L7.15167 8.80401C7.45359 8.53666 7.77165 8.27161 8.10123 8.01117C8.16807 7.95586 8.23952 7.90285 8.31097 7.84753C8.62902 7.59862 8.97013 7.3474 9.32045 7.1054L9.35041 7.08466C9.41495 7.03856 9.47948 6.99247 9.54632 6.94868C9.90355 6.7182 10.27 6.4739 10.6365 6.25725L10.8785 6.11205C11.2611 5.88157 11.6436 5.67876 12.0124 5.48976L12.1 5.44597L12.2752 5.35839C12.6808 5.15557 13.0795 4.96889 13.4644 4.80525C13.5566 4.76377 13.6465 4.72458 13.741 4.68771C14.1666 4.50794 14.5991 4.34199 15.0386 4.18988L15.3267 4.09078C15.7646 3.94558 16.2048 3.8119 16.6404 3.69436L16.9515 3.60908C17.4263 3.48693 17.8988 3.3786 18.3597 3.29563L18.6547 3.23801H18.6893C21.0608 2.81958 23.4817 2.75976 25.8709 3.06055L26 3.07668V2.62956L25.8986 2.61573C23.4072 2.30527 20.8828 2.38224 18.415 2.8439ZM19.867 3.92944C19.7518 3.94097 19.6366 3.9594 19.5282 3.97554C19.0235 4.04929 18.5579 4.13226 18.1039 4.23137L17.8734 4.27977L17.7812 4.30051C17.3479 4.39961 16.9008 4.51485 16.4514 4.64622L16.1495 4.73611C15.7 4.8767 15.2598 5.02651 14.8427 5.18323L14.7966 5.19937L14.5661 5.28925C14.1835 5.43906 13.7894 5.605 13.363 5.7986C13.2731 5.83778 13.1855 5.88157 13.098 5.92306C12.6969 6.11205 12.3097 6.31026 11.9456 6.50847C11.8649 6.54995 11.7888 6.59374 11.699 6.64445C11.3256 6.85188 10.9522 7.07544 10.5927 7.30592C10.5166 7.35432 10.4383 7.40272 10.3622 7.45342C10.0303 7.66546 9.6846 7.91437 9.33658 8.16098L9.11994 8.32232C8.80188 8.55279 8.47921 8.81553 8.16346 9.08289C8.09432 9.1359 8.02748 9.19351 7.96525 9.25113C7.68177 9.48161 7.38906 9.75357 7.05948 10.0647L6.88432 10.2353C6.60544 10.5026 6.32657 10.7884 6.05921 11.0788C5.99929 11.141 5.94167 11.2056 5.88866 11.2655C3.91352 13.4302 2.37428 15.9555 1.3552 18.703L1.33676 18.749L1.37594 18.8228C1.41282 18.8966 1.44969 18.9703 1.48888 19.0533L1.61103 19.2838L1.69861 19.0394C2.70716 16.2444 4.26152 13.6778 6.27125 11.4891C6.32345 11.4271 6.37884 11.3678 6.4372 11.3116C6.6815 11.0465 6.94885 10.7746 7.25538 10.4773L7.43516 10.3067C7.71864 10.0394 8.01596 9.77201 8.32479 9.51157L8.51839 9.34793C8.82262 9.09441 9.13377 8.85011 9.47026 8.60119L9.6846 8.44447C10.0027 8.21399 10.3438 7.98352 10.6987 7.75304C10.7724 7.70233 10.8462 7.65393 10.9292 7.60784C11.2933 7.37736 11.6598 7.16302 12.0262 6.96251C12.1046 6.91641 12.1853 6.87262 12.2682 6.83114C12.6209 6.63754 13.0058 6.44624 13.4206 6.25725C13.4921 6.22037 13.5658 6.18811 13.6511 6.15584L13.6949 6.1374C14.0959 5.95533 14.4969 5.78938 14.8888 5.64188C14.9763 5.6027 15.0662 5.57043 15.1607 5.53817C15.571 5.38605 15.995 5.24546 16.456 5.10717L16.7556 5.01959C17.2166 4.88592 17.6591 4.77759 18.0762 4.69001C18.1823 4.66466 18.2837 4.64161 18.3897 4.62087C18.8506 4.52407 19.3369 4.4434 19.8071 4.37887C19.9154 4.36274 20.0238 4.34891 20.1367 4.33738C22.0508 4.10274 23.9869 4.11203 25.8986 4.36504L26.03 4.38348V3.94558L25.9309 3.93175C23.9184 3.66561 21.8797 3.66483 19.867 3.92944ZM0.195905 10.8068L0.426381 10.4865H0.497828V10.3828C0.496952 10.3751 0.496952 10.3674 0.497828 10.3597C0.530095 10.3136 0.562361 10.2675 0.599238 10.2191C0.843542 9.88725 1.10628 9.54845 1.4059 9.18199L1.46352 9.11054C1.5027 9.06445 1.54188 9.01605 1.58568 8.96765C1.87607 8.61502 2.16878 8.27622 2.45227 7.9743C2.5168 7.90285 2.57903 7.83371 2.64817 7.76456C2.96392 7.42346 3.26815 7.11462 3.5816 6.8127L3.78672 6.61449C4.15318 6.26647 4.47815 5.97376 4.78699 5.71102C4.85843 5.64649 4.92988 5.58426 5.00594 5.52203C5.36087 5.22011 5.72042 4.93201 6.07304 4.66466C6.15371 4.60013 6.22977 4.54251 6.30352 4.48258C6.6838 4.21062 7.05948 3.94327 7.44207 3.68744C7.52735 3.62982 7.61493 3.5699 7.70481 3.51689C8.0874 3.26106 8.48382 3.01445 8.88024 2.78398C8.97013 2.72866 9.06001 2.67335 9.1522 2.62264C9.56015 2.39217 9.98653 2.16169 10.4175 1.93122L10.7079 1.78832C11.1066 1.59702 11.5238 1.40112 12.0078 1.1983L12.3166 1.06923C12.7776 0.880244 13.2385 0.702778 13.7202 0.532225L14.0268 0.423902C14.2319 0.357064 14.437 0.290226 14.6468 0.225692L15.3797 -0.00478363H13.8908L13.8101 0.0159592L13.6695 0.0689687L13.3376 0.188816C12.8375 0.368588 12.3812 0.548359 11.9548 0.735044C11.8511 0.77653 11.7428 0.820321 11.6436 0.86872C11.208 1.05771 10.7678 1.26283 10.3345 1.47948C10.2354 1.52788 10.134 1.57859 10.0372 1.6316C9.57628 1.86207 9.17064 2.09255 8.76731 2.32302C8.67281 2.37603 8.58062 2.42904 8.49535 2.48436C8.11737 2.71483 7.72786 2.94531 7.30379 3.23571C7.21851 3.28872 7.13323 3.34864 7.04335 3.41318C6.68611 3.64365 6.31504 3.91792 5.91171 4.22445L5.6651 4.41344C5.28942 4.70384 4.92988 4.99885 4.6003 5.28234C4.52424 5.34687 4.44588 5.4114 4.36983 5.47824C4.01259 5.78938 3.6784 6.09131 3.36956 6.40015C3.29811 6.46698 3.22897 6.53613 3.15983 6.60527C2.83946 6.91641 2.52141 7.24369 2.21948 7.57327C2.15034 7.64472 2.08581 7.71847 2.02358 7.78761C1.73548 8.10336 1.44048 8.44447 1.14547 8.7994L1.10398 8.85241L0.970304 9.01835C0.781314 9.24883 0.601542 9.47931 0.437904 9.70978L0.419466 9.74896C0.384895 9.87572 0.354933 10.0025 0.327276 10.1269C0.327276 10.1753 0.306533 10.2214 0.297314 10.2652L0.262743 10.3136L0.138286 10.4865H0.251219L0.195905 10.8068ZM1.94983 6.61679L2.05124 6.51308L2.15726 6.40245C2.5168 6.0383 2.84868 5.72485 3.146 5.44137L3.37647 5.23394C3.7268 4.91588 4.08173 4.60704 4.42975 4.31203L4.66022 4.11382C5.01977 3.82573 5.39544 3.53533 5.78034 3.25184L5.80339 3.23801C5.87944 3.1804 5.95781 3.12508 6.03386 3.06977C6.45333 2.79089 6.829 2.53506 7.2162 2.27923L7.27843 2.24005L7.49047 2.10407C7.91224 1.84363 8.33401 1.59242 8.74426 1.36194L9.03466 1.20061C9.45643 0.97013 9.89203 0.739654 10.3299 0.53453L11.2334 0.110454L10.3714 0.269483C10.3194 0.277325 10.2678 0.288098 10.217 0.301749C9.90816 0.368587 9.62698 0.440035 9.32967 0.532225C9.09919 0.654378 8.86872 0.778835 8.63824 0.907901C8.54144 0.960911 8.44003 1.01623 8.34323 1.07384C7.92607 1.30432 7.50199 1.56706 7.08253 1.83442L6.81057 2.01188C6.38188 2.29306 5.99468 2.55811 5.62822 2.82546C5.53834 2.89 5.45306 2.95222 5.36779 3.01906C5.01055 3.2818 4.64179 3.56759 4.24537 3.89257C4.16009 3.9594 4.07943 4.02855 3.99876 4.09769C3.65996 4.37887 3.30733 4.69232 2.93857 5.01959L2.70809 5.22933C2.56981 5.35839 2.43613 5.48516 2.29093 5.63496C2.15495 5.83317 2.02358 6.03369 1.8899 6.25264L1.75853 6.48312L1.73318 6.5246L1.27223 7.21603L1.90373 6.67441C1.92024 6.65615 1.93564 6.63691 1.94983 6.61679ZM19.8209 -0.00017411H19.8071C18.2858 0.175627 16.7827 0.484103 15.3151 0.92173L15.1031 0.981654L14.9809 1.00701C14.52 1.15221 14.059 1.31123 13.5796 1.48409C13.4736 1.52097 13.3699 1.56015 13.2685 1.60163C12.8398 1.76527 12.3973 1.94965 11.9571 2.14786C11.8557 2.18935 11.7566 2.23544 11.6598 2.27923C11.238 2.47283 10.8047 2.68718 10.376 2.91765C10.2815 2.96605 10.187 3.01445 10.0948 3.06516C9.6823 3.29563 9.28127 3.52611 8.90559 3.75658C8.81801 3.80959 8.73043 3.86491 8.64746 3.92022C8.24874 4.16683 7.86384 4.42036 7.50891 4.67158L7.27843 4.8306L7.25769 4.84443C6.90276 5.10026 6.5386 5.37453 6.18367 5.66032C6.10531 5.72024 6.02695 5.78016 5.9532 5.84239C5.60979 6.11896 5.26177 6.40936 4.94602 6.70437C4.87457 6.76199 4.80543 6.82653 4.73167 6.89567C4.38826 7.21373 4.07712 7.51104 3.78442 7.81757C3.71758 7.88211 3.65304 7.94894 3.58851 8.01578C3.28659 8.32692 2.99158 8.64959 2.7127 8.96765C2.64817 9.0391 2.58594 9.10824 2.52832 9.17738C2.25867 9.48852 1.99131 9.8135 1.71244 10.1707C1.65251 10.2422 1.5972 10.3159 1.54649 10.3851C1.00079 11.0939 0.491547 11.8301 0.0207428 12.5907L0 12.6161V12.6484C0 12.7636 0 12.8788 0 12.9987V13.4942L0.214343 13.137C0.754962 12.2349 1.34912 11.3659 1.99362 10.5349C2.04663 10.4634 2.09964 10.3966 2.15495 10.3275C2.41539 9.99788 2.68735 9.6683 2.96853 9.34793L3.0976 9.20273L3.1483 9.14511C3.43179 8.82706 3.7268 8.51131 4.02411 8.20708L4.2131 8.01348C4.53577 7.69312 4.8423 7.40041 5.15344 7.12153L5.36318 6.93254C5.70659 6.62832 6.03386 6.35175 6.36575 6.0867L6.59622 5.90923C6.96038 5.62344 7.313 5.363 7.66794 5.10948C7.75091 5.05186 7.83157 4.99424 7.91685 4.93893C8.2787 4.6854 8.65668 4.43879 9.04388 4.2014C9.12685 4.14609 9.21213 4.09769 9.29971 4.04698C9.67077 3.81651 10.058 3.59986 10.4867 3.374C10.5742 3.32329 10.6641 3.27489 10.7563 3.2288C11.1666 3.01445 11.5952 2.80702 12.0262 2.61112L12.0977 2.57885L12.3282 2.47975C12.7638 2.28615 13.2017 2.10868 13.6327 1.94965C13.7341 1.91047 13.8332 1.87129 13.9415 1.83672C14.4024 1.66847 14.8634 1.51405 15.3244 1.37577C15.4281 1.3412 15.5295 1.31123 15.6332 1.28127H15.6516C18.002 0.613468 20.4336 0.274519 22.8771 0.274092C23.8783 0.273215 24.8787 0.330932 25.8732 0.446949L26.0023 0.460778V-0.00017411H19.8209ZM21.2476 5.09104L20.9088 5.121C20.4478 5.16249 19.9546 5.22241 19.4821 5.29847C19.3715 5.3123 19.2517 5.33304 19.1549 5.35148C18.6939 5.43215 18.233 5.52664 17.8204 5.63036C17.7167 5.6511 17.613 5.67876 17.5139 5.70411C17.0691 5.81704 16.6265 5.94611 16.2048 6.0867C16.108 6.11435 16.0112 6.14662 15.9167 6.18119C15.5295 6.31026 15.1215 6.46237 14.7067 6.64214L14.437 6.75277C14.0245 6.92794 13.6465 7.1031 13.2708 7.29209L13.0403 7.41193C12.6416 7.61706 12.2798 7.81757 11.9387 8.02039C11.858 8.06649 11.7796 8.11258 11.7082 8.16098C11.3509 8.37763 11.0168 8.59889 10.6803 8.82475C10.6065 8.87315 10.5328 8.92386 10.4636 8.97456C10.1225 9.20504 9.79984 9.45395 9.50253 9.69134C9.43338 9.74435 9.36655 9.79506 9.30432 9.85037C9.01161 10.0808 8.7166 10.3344 8.40316 10.6202L8.25104 10.7584L8.21877 10.7861C7.93529 11.0465 7.65641 11.3208 7.39137 11.5951C7.33605 11.6481 7.28535 11.7011 7.22081 11.7702C4.93663 14.1614 3.22705 17.0415 2.22179 20.1918L2.20566 20.2425L2.23562 20.2886C2.28171 20.3624 2.33242 20.4315 2.38082 20.503L2.5168 20.6966L2.58594 20.4661C3.56566 17.2962 5.27101 14.3985 7.56653 12.003C7.62184 11.9454 7.67485 11.8901 7.73478 11.8325C7.99752 11.5628 8.27409 11.2955 8.55758 11.0373L8.73504 10.8737C9.03466 10.6063 9.33428 10.3528 9.62698 10.12C9.68921 10.067 9.75605 10.014 9.82289 9.9633C10.1409 9.71439 10.4613 9.477 10.7794 9.25805L10.9914 9.11054C11.3302 8.88007 11.6828 8.64959 12.0147 8.4606C12.0839 8.41451 12.1576 8.37302 12.2452 8.32693C12.6093 8.11719 12.9781 7.91668 13.3446 7.72999L13.5843 7.60553C13.9392 7.43037 14.3126 7.25982 14.7366 7.08466L14.9671 6.99016L14.9971 6.97864C15.3935 6.81961 15.7968 6.67211 16.1955 6.53843L16.4698 6.45315C16.9054 6.31256 17.3433 6.18811 17.7743 6.08209L18.0693 6.01064C18.5118 5.90923 18.959 5.82165 19.4015 5.7479L19.7149 5.69719C20.1759 5.62805 20.6645 5.57043 21.137 5.53356C21.2453 5.53356 21.3674 5.51512 21.4711 5.51051C22.9387 5.4116 24.4125 5.46644 25.8686 5.67415L26 5.69258V5.25929L25.9009 5.24316C24.3596 5.02679 22.7997 4.9758 21.2476 5.09104ZM23.8312 7.66085C23.7183 7.66085 23.6007 7.64933 23.4855 7.64702C23.0061 7.62628 22.5152 7.63319 22.0381 7.64702C21.9275 7.64702 21.8076 7.64702 21.7085 7.66315C21.2476 7.68851 20.7866 7.7323 20.3487 7.79453C20.2473 7.79453 20.1436 7.81988 20.0422 7.83832C19.5674 7.90746 19.1341 7.99043 18.6985 8.08953C18.6086 8.10797 18.5164 8.12871 18.4312 8.15176C18.0371 8.24395 17.636 8.35458 17.2027 8.48826L16.9354 8.57584C16.5505 8.7003 16.1587 8.8455 15.7692 9.00452C15.6816 9.03449 15.5963 9.07136 15.5133 9.10824C15.1561 9.25574 14.7896 9.42399 14.3932 9.6222C14.3149 9.65908 14.2365 9.70056 14.1628 9.73974C13.8009 9.92643 13.4529 10.12 13.1233 10.3182L12.9067 10.4519C12.554 10.6686 12.236 10.8806 11.941 11.0903C11.8718 11.1364 11.8027 11.1871 11.7358 11.2355C11.404 11.466 11.1066 11.6965 10.8301 11.927C10.7678 11.9754 10.7056 12.0261 10.6434 12.0814C10.3576 12.3119 10.0764 12.57 9.80906 12.8235L9.63851 12.9871C7.0646 15.4699 5.24528 18.6299 4.39057 22.1025L4.01489 22.3837L4.10478 22.4782C6.51489 24.74 9.69589 25.9993 13.0012 25.9998C16.2762 26.0033 19.4286 24.7541 21.8123 22.5081L21.9759 22.4897L21.9344 22.356C20.9636 19.2033 19.3281 16.2954 17.1382 13.8284C17.2942 13.5476 17.4032 13.2432 17.4609 12.9272C19.7496 15.4106 21.4877 18.3496 22.5613 21.5516L22.6212 21.736L22.7549 21.5931C22.8171 21.524 22.8794 21.4525 22.9393 21.3788L22.9785 21.3304L22.9577 21.2705C21.872 18.0814 20.1325 15.1541 17.8504 12.676L17.719 12.5331C17.6683 12.4778 17.6153 12.4248 17.5646 12.3718V12.2865C17.5786 12.1954 17.5742 12.1024 17.5517 12.0131C17.5292 11.9237 17.4891 11.8397 17.4337 11.766C17.3783 11.6924 17.3087 11.6306 17.2291 11.5842C17.1495 11.5378 17.0613 11.5078 16.9699 11.496L17.0391 10.6709C17.2696 10.876 17.4701 11.0742 17.6683 11.2701L17.8112 11.4176C18.1315 11.7426 18.4081 12.0376 18.6616 12.3257C18.7077 12.3741 18.7492 12.4202 18.7953 12.4732L18.9129 12.6069C20.9035 14.8815 22.4653 17.4983 23.5224 20.3301L23.5984 20.5352L23.7252 20.3578C23.7782 20.2817 23.8289 20.2057 23.8888 20.1135L23.9211 20.0651L23.9004 20.0098C22.8281 17.1815 21.2627 14.5658 19.277 12.2842L19.2332 12.2358C19.1894 12.1828 19.1433 12.1344 19.0995 12.086C18.8276 11.7772 18.5395 11.466 18.2283 11.1503L18.0924 11.012C17.8043 10.7193 17.4977 10.4266 17.1705 10.1408C17.1198 10.0901 17.0644 10.0417 17.0091 9.99557C16.8501 9.85268 16.6911 9.71209 16.5297 9.5738L16.2232 9.28801C16.5251 9.17047 16.8247 9.05753 17.1198 8.96765C17.4217 9.22809 17.7282 9.50466 18.0417 9.79275C18.0947 9.83885 18.1431 9.88725 18.1984 9.94256C18.5072 10.2353 18.8138 10.5418 19.1203 10.8645L19.2655 11.0189C19.4683 11.2332 19.6757 11.4637 19.9223 11.7472L20.1206 11.9777L20.2565 12.1367C21.966 14.1771 23.3576 16.4638 24.3844 18.9196L24.4789 19.1501L24.5941 18.9196C24.6425 18.8251 24.6886 18.7306 24.7347 18.6361L24.7577 18.59L24.737 18.5393C23.714 16.1536 22.3507 13.9287 20.6898 11.9339L20.5539 11.7748C20.4571 11.6596 20.3603 11.5444 20.2611 11.4291C20.0307 11.171 19.8578 10.9682 19.6896 10.7953C19.6412 10.74 19.5905 10.6893 19.5398 10.6363C19.2447 10.3182 18.9359 10.0048 18.6179 9.71439L18.4934 9.59224L18.4588 9.55997C18.1961 9.30875 17.9218 9.05753 17.6406 8.81553C17.9679 8.71873 18.2814 8.63576 18.5925 8.56431C18.9136 8.85471 19.2209 9.15126 19.5144 9.45395C19.5674 9.50235 19.6204 9.55306 19.6688 9.60607C20.0007 9.94256 20.3026 10.2629 20.5907 10.5902C20.6391 10.6409 20.6875 10.6939 20.7336 10.7492C21.0379 11.0949 21.3283 11.4407 21.6025 11.7841C21.6463 11.8371 21.6901 11.8924 21.7339 11.9523C23.0383 13.6057 24.1495 15.4028 25.0458 17.3086L25.1634 17.5598L25.2579 17.2994L25.3339 17.0689L25.3846 16.9168L25.3639 16.873C24.4953 15.0692 23.4368 13.3633 22.2064 11.7841C22.1626 11.7241 22.1142 11.6642 22.0658 11.6066C21.7938 11.2586 21.5011 10.9152 21.1969 10.5533L21.0471 10.3851C20.7198 10.0163 20.4156 9.69365 20.1252 9.38481L19.9684 9.22348C19.7057 8.95843 19.4314 8.69108 19.1479 8.42833C19.4821 8.35919 19.8394 8.29927 20.1851 8.24856C20.5124 8.54818 20.8166 8.87085 21.1347 9.21887C21.19 9.27418 21.2407 9.3318 21.2937 9.38942C21.4896 9.60146 21.6832 9.8158 21.8722 10.0348C21.9897 10.1684 22.1026 10.3044 22.2225 10.4427L22.37 10.6225C22.6858 11.0028 22.9808 11.3784 23.2481 11.7403L23.3472 11.8716L23.3841 11.9224C24.1953 13.0212 24.927 14.1765 25.5736 15.3795L25.7303 15.6699L25.788 15.3449C25.811 15.2159 25.8341 15.0868 25.8525 14.9577V14.9208L25.8341 14.8863C25.2448 13.817 24.5906 12.7848 23.875 11.7956C23.8266 11.7288 23.7805 11.6665 23.7321 11.6066C23.444 11.2102 23.1467 10.8276 22.8517 10.4704C22.8043 10.4048 22.7535 10.3417 22.6996 10.2814C22.5429 10.0924 22.3838 9.90569 22.2225 9.71669C22.0612 9.5277 21.9183 9.37329 21.7615 9.20504C21.7085 9.14281 21.6532 9.08289 21.5979 9.02527C21.3352 8.74178 21.0609 8.45599 20.7774 8.17251C21.1462 8.13332 21.4942 8.10336 21.8353 8.08723C22.1626 8.42603 22.4829 8.77866 22.7895 9.13129C22.8333 9.17738 22.8747 9.22578 22.9139 9.27418L22.9508 9.31797C23.2781 9.69595 23.5938 10.0808 23.8888 10.4704C23.9418 10.5326 23.9879 10.5971 24.0363 10.6593C24.3682 11.0903 24.6586 11.4891 24.926 11.8809C24.9721 11.9477 25.0182 12.0122 25.062 12.0791C25.3086 12.4409 25.5483 12.8143 25.7741 13.1854L25.9677 13.5034L25.9977 13.137C25.9977 13.0932 25.9977 13.0517 25.9977 13.0079V12.6253L25.9793 12.5953C25.8594 12.404 25.735 12.2151 25.6105 12.0238L25.5828 11.9846L25.4538 11.7933C25.1726 11.3761 24.8707 10.9544 24.5595 10.5441C24.5088 10.475 24.4581 10.4081 24.4074 10.3436C24.1147 9.9587 23.7943 9.56458 23.4602 9.16816C23.4048 9.10363 23.3495 9.03909 23.2942 8.97917C23.0338 8.67264 22.7572 8.3638 22.4714 8.05727H22.8724C23.1421 8.05727 23.3818 8.05727 23.6007 8.0734C23.9234 8.43525 24.2484 8.81784 24.5687 9.21426L24.7324 9.42169C25.0527 9.82271 25.3731 10.2468 25.6819 10.6801L25.9954 11.1203V10.2998L25.9746 10.2698C25.7626 9.97483 25.5298 9.66599 25.2625 9.32258C25.2164 9.26266 25.1703 9.20273 25.1219 9.14511L25.0965 9.11285C24.8246 8.76944 24.5457 8.43294 24.2668 8.11028C24.8038 8.14946 25.3385 8.21169 25.8617 8.29696L25.9954 8.32001V7.89133L25.8986 7.8775C25.2141 7.76668 24.5239 7.69435 23.8312 7.66085ZM10.0027 16.4766C8.91298 17.8433 8.04998 19.3763 7.44668 21.0169L6.45333 21.1852C7.13275 19.1491 8.18728 17.2581 9.56245 15.61C9.67512 15.9137 9.8204 16.2042 9.99574 16.4766H10.0027ZM8.97474 20.685C8.78969 20.7634 8.5964 20.8206 8.39855 20.8556L7.91224 20.9363C8.48165 19.4577 9.26772 18.072 10.2447 16.8246C10.3552 16.9663 10.4745 17.101 10.6019 17.2279V17.8179C9.95632 18.7113 9.41066 19.6727 8.97474 20.685ZM10.5881 18.5647C10.5473 18.9073 10.4391 19.2384 10.2698 19.539C10.1005 19.8396 9.87344 20.1038 9.60163 20.3163C9.59661 20.3228 9.59035 20.3283 9.58319 20.3324C9.88196 19.7206 10.2223 19.1299 10.6019 18.5647H10.5881ZM9.23287 14.0197L9.2467 14.1626C9.27264 14.492 9.32896 14.8184 9.41495 15.1375C7.86871 16.9277 6.69918 19.0112 5.97624 21.2635C5.60326 21.3396 5.24865 21.4876 4.93219 21.6991C5.73211 18.8327 7.20679 16.1995 9.23287 14.0197ZM13.0012 25.5435C9.95637 25.538 7.01618 24.4321 4.72245 22.4298L5.09583 22.1509C5.40196 21.92 5.75936 21.7667 6.13758 21.7038L8.4746 21.3096C9.19775 21.1868 9.85416 20.8121 10.3278 20.252C10.8014 19.6919 11.0618 18.9824 11.0628 18.2489V17.758C11.6448 18.115 12.3116 18.3099 12.9942 18.3227C13.6575 18.314 14.3056 18.1235 14.868 17.7718V18.2489C14.8705 18.9842 15.1332 19.6948 15.6094 20.255C16.0857 20.8152 16.7448 21.1888 17.4701 21.3096L19.8071 21.7038C20.186 21.7666 20.5442 21.92 20.8512 22.1509L21.2268 22.4321C18.9569 24.4383 16.0306 25.5435 13.0012 25.5389V25.5435ZM18.1408 20.9593L17.5461 20.8602C17.3996 20.8335 17.2555 20.7949 17.1152 20.745C16.6131 19.7124 16.0175 18.728 15.3359 17.8041V17.274C15.4652 17.155 15.5861 17.0272 15.6977 16.8914C16.6694 18.1448 17.4894 19.5087 18.1408 20.9547V20.9593ZM15.9766 16.5042C16.1451 16.2456 16.2871 15.9707 16.4007 15.6837C17.7612 17.3478 18.8609 19.209 19.6619 21.2036L18.6801 21.04C17.9804 19.4167 17.0716 17.8919 15.9766 16.5042ZM16.4214 20.3762C16.3892 20.3532 16.3569 20.3301 16.3269 20.3048C15.8026 19.8896 15.4578 19.289 15.3635 18.6269C15.7484 19.1899 16.1015 19.7739 16.4214 20.3762ZM16.9423 11.9454C16.9878 11.9567 17.0288 11.9816 17.0598 12.0168C17.0826 12.0432 17.0994 12.0741 17.1094 12.1075C17.1193 12.1408 17.1221 12.1759 17.1175 12.2104C17.0719 12.6261 16.9736 13.0343 16.8247 13.4251L16.9423 11.9454ZM16.804 14.1464C18.8168 16.4051 20.3497 19.0491 21.3098 21.9181L21.1277 21.7821C20.8512 21.5734 20.5387 21.4172 20.2058 21.3212C19.345 19.0835 18.1166 17.0052 16.5712 15.1721C16.6631 14.8434 16.7248 14.507 16.7556 14.1672C16.7725 14.1621 16.7887 14.1552 16.804 14.1464ZM16.6104 10.2583L16.2877 14.1188C16.1172 16.223 14.732 17.7465 13.0012 17.7465C11.2703 17.7465 9.86898 16.223 9.70535 14.1257L9.65695 13.5795L9.96809 13.2683C10.0234 13.2153 10.0764 13.1646 10.1363 13.1116C10.3945 12.8627 10.671 12.6184 10.9568 12.3833C11.0191 12.3326 11.0767 12.2819 11.1412 12.2335C11.4178 12.003 11.7105 11.7725 12.0378 11.5421C12.1 11.4937 12.1668 11.4499 12.2337 11.4038C12.5379 11.1894 12.8606 10.9797 13.1971 10.7746C13.2662 10.7308 13.3353 10.687 13.4114 10.6478C13.7364 10.4519 14.0821 10.2606 14.437 10.0808C14.5108 10.0394 14.5868 10.0025 14.6675 9.96561C15.0063 9.79736 15.3589 9.63833 15.7115 9.49083C16.0319 9.75357 16.3269 10.0025 16.6104 10.2583ZM13.4252 15.2112C13.3092 15.3023 13.1659 15.3517 13.0184 15.3517C12.8709 15.3517 12.7277 15.3023 12.6116 15.2112C12.3577 15.4438 12.0455 15.6031 11.7082 15.6722C12.5702 16.3483 13.4314 16.3483 14.2918 15.6722C13.9633 15.6089 13.6613 15.4483 13.4252 15.2112ZM12.3282 14.2893C12.3792 14.2894 12.4284 14.3083 12.4664 14.3423C12.4966 14.3759 12.513 14.4194 12.5125 14.4645V14.4922C12.5125 14.5068 12.5184 14.5209 12.5287 14.5313C12.5391 14.5416 12.5532 14.5475 12.5679 14.5475C12.5827 14.5475 12.5971 14.5417 12.6078 14.5314C12.6185 14.5211 12.6249 14.507 12.6255 14.4922V14.2317C12.6255 14.2164 12.6194 14.2018 12.6086 14.191C12.5978 14.1802 12.5831 14.1741 12.5679 14.1741H12.3259C12.3184 14.1741 12.311 14.1756 12.3041 14.1785C12.2973 14.1814 12.2911 14.1857 12.2859 14.1911C12.2807 14.1965 12.2767 14.2029 12.2741 14.2098C12.2714 14.2168 12.2702 14.2243 12.2705 14.2317C12.2705 14.2393 12.272 14.2468 12.2749 14.2538C12.2778 14.2608 12.2821 14.2671 12.2874 14.2725C12.2928 14.2778 12.2991 14.2821 12.3061 14.285C12.3131 14.2878 12.3206 14.2893 12.3282 14.2893ZM15.7692 12.2865C15.7422 12.2861 15.7159 12.2955 15.6952 12.3128C15.6745 12.3302 15.6606 12.3543 15.6562 12.381C15.6217 12.5677 15.564 12.8903 15.564 12.9434C15.564 12.9978 15.5857 13.0499 15.6241 13.0884C15.6626 13.1269 15.7148 13.1485 15.7692 13.1485C15.8236 13.1485 15.8757 13.1269 15.9142 13.0884C15.9527 13.0499 15.9743 12.9978 15.9743 12.9434C15.9743 12.8903 15.9167 12.5677 15.8821 12.381C15.8777 12.3543 15.8639 12.3302 15.8432 12.3128C15.8224 12.2955 15.7962 12.2861 15.7692 12.2865ZM13.4321 14.5475C13.447 14.5475 13.4614 14.5417 13.4721 14.5314C13.4828 14.5211 13.4892 14.507 13.4898 14.4922V14.4645C13.4877 14.4196 13.5034 14.3757 13.5336 14.3423C13.5724 14.3081 13.6224 14.2893 13.6741 14.2893C13.6892 14.2888 13.7036 14.2825 13.7143 14.2718C13.7249 14.2611 13.7312 14.2468 13.7318 14.2317C13.7318 14.2168 13.726 14.2025 13.7157 14.1918C13.7054 14.181 13.6913 14.1747 13.6764 14.1741H13.4321C13.4169 14.1741 13.4022 14.1802 13.3914 14.191C13.3806 14.2018 13.3745 14.2164 13.3745 14.2317V14.4622C13.3723 14.4721 13.3723 14.4823 13.3745 14.4922C13.3745 14.4996 13.376 14.507 13.3789 14.5139C13.3819 14.5207 13.3861 14.5269 13.3915 14.5321C13.3969 14.5373 13.4033 14.5413 13.4103 14.5439C13.4172 14.5466 13.4247 14.5478 13.4321 14.5475ZM16.0089 11.1664C15.9816 11.1527 15.9501 11.1504 15.9212 11.1599C15.8923 11.1694 15.8683 11.19 15.8544 11.2171C15.7647 11.3964 15.6274 11.5477 15.4577 11.6546C15.2879 11.7614 15.0922 11.8196 14.8916 11.8229C14.6911 11.8263 14.4935 11.7746 14.3203 11.6734C14.1471 11.5723 14.0049 11.4256 13.9092 11.2494C13.8946 11.2225 13.8698 11.2025 13.8404 11.1939C13.811 11.1852 13.7794 11.1886 13.7525 11.2033C13.7256 11.2179 13.7056 11.2427 13.697 11.2721C13.6884 11.3015 13.6917 11.3331 13.7064 11.36C13.8223 11.5731 13.9943 11.7504 14.2038 11.8726C14.4133 11.9949 14.6523 12.0574 14.8949 12.0533C15.1374 12.0493 15.3742 11.9789 15.5795 11.8497C15.7849 11.7206 15.9509 11.5377 16.0596 11.3208C16.0667 11.3074 16.071 11.2927 16.0722 11.2776C16.0735 11.2625 16.0717 11.2472 16.067 11.2328C16.0623 11.2184 16.0547 11.2051 16.0447 11.1937C16.0347 11.1823 16.0225 11.173 16.0089 11.1664ZM22.8771 6.32639C22.7756 6.32639 22.6742 6.32639 22.5751 6.32639C22.476 6.32639 22.3447 6.32639 22.2317 6.32639C21.7708 6.34022 21.2752 6.37249 20.7866 6.42089H20.7567L20.4617 6.45315C19.98 6.51077 19.5398 6.57761 19.1157 6.66058C19.012 6.67902 18.9083 6.69746 18.8115 6.72051C18.3828 6.80578 17.9495 6.90719 17.4885 7.03626L17.2027 7.14458C16.7879 7.26443 16.3799 7.39811 15.9904 7.541L15.7899 7.61245L15.7208 7.6378C15.3244 7.78761 14.9325 7.94894 14.5546 8.1195L14.4555 8.16559L14.308 8.23473C13.9392 8.40529 13.5612 8.59428 13.1924 8.7971C13.1118 8.83858 13.0357 8.88007 12.962 8.92386C12.6116 9.11976 12.2705 9.3295 11.9294 9.54384L11.7151 9.68443C11.3855 9.89877 11.0605 10.1269 10.7448 10.362C10.6872 10.4058 10.6296 10.4473 10.5742 10.4934L10.5443 10.5164C10.2308 10.7469 9.92891 11.0004 9.64312 11.2471C9.57858 11.3001 9.51635 11.3554 9.45643 11.4084C9.18677 11.6389 8.90559 11.9039 8.62441 12.1805L8.45617 12.3487C5.9374 14.8772 4.12692 18.0229 3.20592 21.471L3.18979 21.5309L3.22897 21.5747C3.27967 21.6369 3.33499 21.6945 3.388 21.7545L3.5332 21.9089L3.5839 21.7038C4.47917 18.258 6.27906 15.1142 8.79727 12.5976L8.96552 12.4455C9.23287 12.1851 9.50714 11.9293 9.78371 11.6873L9.9727 11.5282C10.2677 11.2747 10.5673 11.0327 10.8646 10.8092L10.996 10.71L11.0605 10.6616C11.3671 10.4312 11.6897 10.2007 12.017 9.99788L12.0977 9.94487L12.2337 9.85729C12.584 9.63833 12.9251 9.44012 13.257 9.25113L13.4875 9.12668C13.8447 8.93308 14.2158 8.7487 14.5891 8.57814L14.8357 8.46751C15.1999 8.30388 15.5871 8.14715 15.9881 8.00656C16.0757 7.9743 16.1633 7.94203 16.2578 7.91207C16.6496 7.77148 17.0529 7.64241 17.4586 7.52717L17.7467 7.43037C18.1799 7.31514 18.6179 7.21373 19.0511 7.13075L19.3508 7.07314C19.7841 6.99477 20.2312 6.93024 20.6875 6.88184C20.7935 6.86801 20.9019 6.85879 21.0102 6.84957C21.4711 6.80348 21.9528 6.77582 22.4368 6.7666C22.5475 6.7666 22.6673 6.7666 22.7802 6.7666H22.884C23.8871 6.76838 24.8886 6.84542 25.8802 6.99708L26.0138 7.01782V6.573L25.9147 6.55917C24.9092 6.40804 23.8938 6.33254 22.8771 6.33331V6.32639ZM14.2572 10.8068C14.245 10.8164 14.2367 10.8301 14.2337 10.8453C14.2307 10.8606 14.2334 10.8764 14.2411 10.8898C14.2497 10.9038 14.2635 10.9139 14.2795 10.9178C14.2955 10.9217 14.3123 10.9191 14.3264 10.9106C14.5902 10.7545 14.8887 10.6667 15.1949 10.6551C15.5011 10.6434 15.8054 10.7082 16.0803 10.8437H16.1011C16.146 10.8602 16.1956 10.8582 16.2391 10.8381C16.2825 10.818 16.3162 10.7815 16.3327 10.7366C16.3492 10.6916 16.3472 10.642 16.3271 10.5985C16.307 10.5551 16.2704 10.5214 16.2255 10.5049C15.8984 10.3861 15.5467 10.3515 15.2028 10.4043C14.8588 10.457 14.5337 10.5955 14.2572 10.8068Z" fill="white"/>
</g>
</g>
</g>
<defs>
<clipPath id="clip0_134_413">
<rect width="26" height="26" fill="white"/>
</clipPath>
</defs>
</svg>
